<?xml version="1.0" encoding="utf-8"?>
<!-- Generator: Adobe Illustrator 16.0.4, SVG Export Plug-In . SVG Version: 6.00 Build 0)  -->
<!DOCTYPE svg PUBLIC "-//W3C//DTD SVG 1.1//EN" "http://www.w3.org/Graphics/SVG/1.1/DTD/svg11.dtd">
<svg version="1.1" id="Layer_1" xmlns="http://www.w3.org/2000/svg" xmlns:xlink="http://www.w3.org/1999/xlink" x="0px" y="0px"
	 width="182.333px" height="141.73px" viewBox="0 0 182.333 141.73" enable-background="new 0 0 182.333 141.73"
	 xml:space="preserve">
<path fill="none" stroke="#000000" stroke-width="0.5" stroke-miterlimit="10" d="M176.004,123.224
	c0,0-8.188-107.453-85.104-107.704C13.986,15.771,6.167,123.222,6.167,123.222"/>
<path fill="none" stroke="#000000" stroke-width="0.5" stroke-miterlimit="10" d="M40.182,123.223c0,0-0.946-84.943,50.986-84.958
	l0,0c51.687,0.33,50.791,84.958,50.791,84.958"/>
<path fill="none" stroke="#000000" stroke-width="0.5" stroke-miterlimit="10" d="M33.333,123.223c0,0,1.333-91.191,58.835-91.081
	l0,0C146.333,32.032,149,123.224,149,123.224"/>
<path fill="none" stroke="#000000" stroke-width="0.5" stroke-miterlimit="10" d="M172,123.223c0,0-12-104.872-80.101-104.872
	C19.333,18.297,9.333,123.224,9.333,123.224"/>
</svg>
